<svg width="200" height="200" viewBox="0 0 200 200" fill="none" xmlns="http://www.w3.org/2000/svg">
<path fill-rule="evenodd" clip-rule="evenodd" d="M30.5995 3.95839L30.613 3.96661L30.6037 3.96073C30.5996 3.95822 30.5995 3.95841 30.5995 3.95839L30.6063 3.94741L30.6228 3.92041L30.6832 3.82253C30.7348 3.73925 30.8082 3.62133 30.8971 3.48022C31.0741 3.1996 31.3171 2.82016 31.5744 2.43639C31.8254 2.06221 32.1168 1.64369 32.386 1.30351C32.5148 1.1407 32.6839 0.937736 32.8714 0.756399C32.9618 0.669011 33.1132 0.530829 33.3117 0.400703C33.4359 0.319254 33.9418 -0.0115971 34.666 0.000313593L35.4206 0.0127223L36.0159 0.476526C40.1557 3.70207 43.9196 6.723 46.6844 9.11043C48.0621 10.3001 49.2274 11.3629 50.0756 12.2321C50.4966 12.6635 50.8782 13.0865 51.1766 13.4805C51.3965 13.7706 51.8533 14.394 51.9761 15.1637L52.0043 15.3403V15.5192C52.0043 16.3235 51.6515 17.0647 51.4509 17.4594C51.1954 17.962 50.8585 18.5047 50.498 19.0402C49.7723 20.118 48.8289 21.3462 47.9174 22.4805C47.5409 22.949 47.165 23.4075 46.8054 23.8402C49.9614 24.4458 52.9712 25.0086 55.8652 25.5498C78.6854 29.8172 94.3051 32.738 117.594 44.6497L117.776 44.7428L117.939 44.8672C122.4 48.2834 124.923 51.9789 126.114 55.9592C127.159 59.4506 127.126 62.9921 126.704 66.4599C133.605 59.2781 142.584 56.1484 151.067 57.0696C161.374 58.1889 170.704 65.2674 174.471 77.734C174.496 77.8154 174.514 77.8984 174.527 77.9824C175.388 83.5913 175.262 88.7362 173.895 93.752C172.53 98.7638 169.952 103.546 166.044 108.469C162.536 112.888 157.922 117.46 152.083 122.451C152.366 122.323 152.682 122.251 153.013 122.251H169.022L200 161.788V197.743C200 198.99 198.99 200 197.743 200C196.497 200 195.487 198.99 195.487 197.743V163.346L166.825 126.764H153.013C151.767 126.764 150.757 125.754 150.757 124.508C150.757 124.044 150.896 123.614 151.136 123.256C145.105 128.344 137.816 133.876 129.148 140.128H144.73C145.976 140.128 146.987 141.138 146.987 142.384C146.987 143.63 145.976 144.641 144.73 144.641H64.6577C63.4115 144.641 62.4012 143.63 62.4012 142.384C62.4012 141.138 63.4115 140.128 64.6577 140.128H118.759C110.765 134.739 103.721 129.246 97.7189 123.78C97.7966 124.009 97.8388 124.253 97.8388 124.508C97.8388 125.754 96.8285 126.764 95.5822 126.764H43.1408L17.8304 160.311H167.923C169.17 160.311 170.18 161.321 170.18 162.567C170.18 163.813 169.17 164.824 167.923 164.824H15.5576V197.743C15.5576 198.99 14.5473 200 13.301 200C12.0548 200 11.0445 198.99 11.0445 197.743V161.811L40.8924 122.251H95.5822C95.7748 122.251 95.9617 122.275 96.1401 122.321C93.1054 119.472 90.3568 116.634 87.9073 113.827C79.951 104.707 75.0214 95.7544 73.8742 87.6669C72.4499 87.061 71.1765 86.5898 70.1622 86.325C63.1795 84.5021 55.4452 80.2653 44.7389 73.972L44.2538 73.6869L43.9593 73.2073L45.8824 72.0267C43.9593 73.2073 43.9594 73.2074 43.9593 73.2073L43.9571 73.2036L43.9184 73.1407L43.795 72.9409C43.6864 72.7652 43.5261 72.5067 43.3206 72.1772C42.9095 71.5182 42.3179 70.5754 41.5974 69.4437C40.1553 67.1786 38.2019 64.1642 36.1491 61.1548C34.0893 58.1352 31.9588 55.1638 30.1581 52.964C29.2522 51.8573 28.4769 51.0042 27.869 50.4472C27.824 50.406 27.7811 50.3675 27.7403 50.3315C27.646 50.437 27.541 50.5608 27.4254 50.7048C26.7682 51.5231 26.0206 52.6705 25.224 53.9454C25.0289 54.2577 24.8298 54.5794 24.6296 54.9028C24.0479 55.8427 23.457 56.7975 22.9269 57.5805C22.5681 58.1105 22.1909 58.6322 21.8173 59.0605C21.5301 59.3898 20.9405 60.0366 20.1175 60.3231L20.0327 60.3526L19.9457 60.3753C19.4405 60.5072 19.0083 60.4405 18.8509 60.4137C18.6378 60.3775 18.4458 60.3217 18.2993 60.2737C18.0027 60.1766 17.685 60.0422 17.381 59.9025C16.7617 59.618 15.9886 59.2134 15.143 58.7457C13.4406 57.8044 11.3001 56.5277 9.21275 55.2331C7.12364 53.9375 5.0594 52.6064 3.50742 51.5512C2.73606 51.0267 2.06514 50.5527 1.57464 50.1769C1.33587 49.994 1.09681 49.8018 0.900753 49.6196C0.808325 49.5337 0.670955 49.4002 0.539608 49.2358C0.474704 49.1546 0.370269 49.0153 0.272538 48.8302C0.194031 48.6814 0.000228104 48.285 1.89293e-07 47.7408C-0.000180283 47.3101 0.128742 46.9779 0.149257 46.925L0.151274 46.9198C0.192594 46.8103 0.234904 46.7223 0.259262 46.6733C0.310366 46.5705 0.365214 46.4749 0.406293 46.4054C0.493108 46.2583 0.605472 46.0812 0.72958 45.8908C0.982177 45.5032 1.34253 44.9702 1.7879 44.3223C2.68163 43.0222 3.95301 41.2082 5.47184 39.0591C8.51124 34.7585 12.5614 29.0882 16.6086 23.4421C20.6565 17.7951 24.7042 12.1685 27.7396 7.95398C28.8094 6.46868 29.7535 5.15868 30.5277 4.08487C30.5502 4.04226 30.5741 4.00008 30.5995 3.95839ZM77.9006 89.5261C79.4605 96.0753 83.7222 103.537 90.6279 111.453C98.5623 120.548 109.852 130.084 124.082 139.319C143.46 125.473 155.935 115.396 163.216 106.225C166.893 101.592 169.202 97.2414 170.412 92.8027C171.611 88.4038 171.756 83.82 170.978 78.6567C167.59 67.5979 159.454 61.6121 150.677 60.659C141.836 59.6989 132.101 63.8224 125.636 73.5572C125.3 74.0635 124.732 74.3666 124.124 74.3637C123.516 74.3608 122.951 74.0523 122.619 73.5428C117.15 65.135 109.375 61.6346 101.8 61.7479C94.9327 61.8506 88.1504 64.9269 83.3261 70.1976L101.062 79.8439C104.964 81.887 106.708 84.7936 107.101 87.6547C107.471 90.345 106.615 92.7803 105.723 94.0736C103.554 97.2145 98.5049 99.9178 91.9514 97.1804L91.8029 97.1184L91.6235 97.0114L91.4963 96.9359C91.3838 96.8694 91.217 96.7709 91.0018 96.6446C90.5713 96.392 89.9475 96.0284 89.1777 95.5863C87.6372 94.7015 85.5165 93.505 83.1933 92.2563C81.4556 91.3223 79.6451 90.3817 77.9006 89.5261ZM80.0704 68.4269C85.5785 62.0348 93.5722 58.26 101.746 58.1377C108.984 58.0295 116.296 60.7871 122.08 66.9913C122.6 63.4101 122.679 60.2211 121.791 57.2531C120.923 54.3546 119.07 51.4595 115.354 48.5733C92.7807 37.054 77.8135 34.2522 55.1102 30.0021C51.485 29.3234 47.6626 28.6079 43.5805 27.814L35.5852 39.2982C34.8731 40.321 33.4668 40.5729 32.4439 39.8608C31.4211 39.1488 31.1692 37.7424 31.8813 36.7196L40.7939 23.9177L40.9013 23.797L40.9586 23.7322C41.0093 23.6748 41.0844 23.5896 41.1804 23.48C41.3726 23.2607 41.6481 22.9445 41.9791 22.5592C42.6423 21.7871 43.5226 20.7445 44.3994 19.6534C45.2825 18.5545 46.1338 17.4412 46.7542 16.5198C46.9424 16.2402 47.0985 15.9942 47.2228 15.7839C47.1162 15.6662 46.9909 15.5332 46.8455 15.3841C46.1307 14.6516 45.0783 13.6864 43.7348 12.5263C41.4634 10.5649 38.4614 8.13323 35.0861 5.47968L35.0681 5.50453C34.1832 6.73154 32.9189 8.48519 31.4018 10.5916C28.3674 14.8046 24.3219 20.4282 20.2767 26.0715C16.2308 31.7157 12.1878 37.376 9.15744 41.6638C7.64137 43.809 6.38368 45.6037 5.50708 46.8789C5.41414 47.0141 5.32587 47.1429 5.24235 47.2652C5.48399 47.4348 5.75237 47.6201 6.04505 47.8191C7.53036 48.829 9.53881 50.1248 11.5914 51.3977C13.6457 52.6718 15.7159 53.9054 17.3269 54.7962C17.9048 55.1158 18.4057 55.3812 18.8152 55.5852C18.9284 55.4301 19.0531 55.2522 19.1896 55.0505C19.6637 54.3503 20.1803 53.5156 20.7449 52.6035C20.9552 52.2636 21.1727 51.9123 21.3966 51.5539C22.1877 50.2878 23.0622 48.9303 23.9064 47.879C24.3261 47.3564 24.8024 46.8275 25.3183 46.4104C25.7735 46.0425 26.5938 45.4833 27.6591 45.4833C28.489 45.4833 29.1743 45.8354 29.5861 46.0869C30.0492 46.3698 30.4992 46.736 30.9179 47.1196C31.7595 47.8908 32.6926 48.9352 33.6505 50.1053C35.5773 52.4593 37.7955 55.5596 39.8774 58.6116C41.9663 61.674 43.9474 64.7313 45.4045 67.02C46.1336 68.1651 46.7327 69.1198 47.15 69.789C47.2906 70.0143 47.4105 70.2073 47.5079 70.3643C58.0527 76.5523 65.1252 80.3457 71.3022 81.9582C74.9223 82.9033 80.6838 85.7837 85.33 88.281C87.7006 89.5552 89.8597 90.7735 91.4254 91.6727C92.2088 92.1226 92.8447 92.4933 93.2857 92.7521C93.5063 92.8814 93.6781 92.9829 93.7954 93.0523L93.8312 93.0736C98.2403 94.8519 101.003 92.9664 102.009 91.5095C102.31 91.0728 102.835 89.7598 102.63 88.2693C102.449 86.9539 101.668 85.2517 98.9556 83.8353L98.9386 83.8265L72.4151 69.4008C71.3203 68.8054 70.9155 67.4351 71.511 66.3403C72.1064 65.2455 73.4766 64.8407 74.5715 65.4361L80.0704 68.4269ZM47.6753 16.3457C47.6745 16.3455 47.6674 16.3347 47.6566 16.3142C47.6706 16.3357 47.676 16.3459 47.6753 16.3457ZM18.2586 56.2578C18.2555 56.2605 18.2539 56.262 18.2539 56.2622C18.2539 56.2626 18.259 56.2586 18.2693 56.2491C18.2647 56.2527 18.2612 56.2556 18.2586 56.2578ZM28.2415 49.8586C28.2413 49.8595 28.2312 49.8667 28.2115 49.8774C28.2318 49.8629 28.2417 49.8576 28.2415 49.8586ZM27.1695 49.9035C27.1698 49.9041 27.1787 49.909 27.1957 49.9163C27.1901 49.9132 27.1853 49.9107 27.1815 49.9087C27.1732 49.9045 27.1693 49.903 27.1695 49.9035Z" fill="white"/>
</svg>
