<svg width="130" height="118" viewBox="0 0 130 118" fill="none" xmlns="http://www.w3.org/2000/svg">
<path d="M2.3201 43.7068C6.97495 60.6016 26.4669 58.0372 32.1399 38.7289C41.3041 61.8083 58.7047 56.9813 62.687 43.7068C65.1601 33.1475 53.0755 15.9685 32.1399 1.77148C7.7022 20.1747 0.283551 29.6781 2.3201 43.7068Z" stroke="white" stroke-width="3" stroke-linecap="round" stroke-linejoin="round"/>
<path d="M49.0132 56.3779V94.8438C49.0132 113.549 78.833 110.984 78.833 94.8438C78.833 94.8438 78.833 90.7985 78.833 88.2065V79.6083C78.833 63.166 109.089 62.4118 109.089 79.6083V91.2234" stroke="white" stroke-width="3"/>
<path d="M94.9798 116.565V83.982C94.7859 81.7193 93.4379 75.8061 89.5977 70.255C85.7575 64.7038 78.0092 53.1591 74.615 48.0806C71.2693 42.0467 78.6879 37.823 81.4518 40.9908L90.7614 52.4551M90.7614 52.4551V20.9282C90.7614 14.4418 100.071 14.291 100.071 20.9282M90.7614 52.4551V57.1321M100.071 20.9282V12.7825C100.071 7.65451 109.09 7.35266 109.09 12.7825V19.1181M100.071 20.9282V42.6508M109.09 19.1181C109.09 12.3307 118.399 12.7825 118.399 19.1181V25.7553M109.09 19.1181V42.6508M118.399 25.7553C118.399 19.5713 128 19.873 128 25.7553V58.1873C127.709 60.3997 126.836 65.3977 125.672 67.6906C124.218 70.5567 123.345 77.9482 123.345 83.982C123.345 88.8091 123.345 108.52 123.345 117.772M118.399 25.7553V42.6508" stroke="white" stroke-width="3"/>
<mask id="path-4-inside-1" fill="white">
<rect x="99.7798" y="88.8098" width="18.6192" height="14.4813" rx="2.38525"/>
</mask>
<rect x="99.7798" y="88.8098" width="18.6192" height="14.4813" rx="2.38525" stroke="white" stroke-width="6" mask="url(#path-4-inside-1)"/>
</svg>
