<svg width="40" height="20" viewBox="0 0 40 20" fill="none" xmlns="http://www.w3.org/2000/svg">
<path fill-rule="evenodd" clip-rule="evenodd" d="M40 18.219C34.8046 17.532 31.713 17.1884 30.7252 17.1884C28.6243 17.1884 26.7464 18.4411 25.3611 18.7574C24.4626 18.9628 23.577 19.2473 22.674 19.4164C21.4686 19.6421 20.2469 20.0878 19.0247 19.9848C17.9727 19.8961 16.9221 19.7856 15.8713 19.6762C15.2428 19.6109 14.6156 19.4693 13.9879 19.4694C13.0733 19.4694 12.1585 19.5592 11.2448 19.6242C10.3296 19.6892 9.41502 19.7637 8.50113 19.8477C7.76034 19.9168 7.05019 19.7572 6.35701 19.5C5.97622 19.3586 5.75664 19.0202 5.68768 18.5744C5.62247 18.152 5.78315 17.7979 6.08774 17.6058C6.3468 17.4424 6.6693 17.3654 6.97081 17.3335C7.54706 17.2721 8.13795 17.3352 8.70519 17.2297C9.56665 17.0694 10.4225 16.871 11.2781 16.6706L11.6729 16.5781C11.8703 16.5319 12.0678 16.4861 12.2653 16.4406C12.4461 16.3991 12.62 16.3202 12.797 16.2586C12.7951 16.2269 12.7931 16.195 12.7911 16.1636C12.6258 16.1521 12.4582 16.116 12.2963 16.136C12.0477 16.1666 11.8045 16.2498 11.5562 16.2866C10.7519 16.4064 9.94681 16.5157 9.14139 16.6276C8.24035 16.7531 7.33961 16.8857 6.43742 17.0003C5.25138 17.1506 4.06455 17.2951 2.87669 17.4249C2.30096 17.4876 1.75106 16.9758 1.63158 16.3073C1.50944 15.6245 1.80486 15.0345 2.39721 14.827C2.60033 14.7557 2.82252 14.7515 3.03497 14.7097C3.51804 14.6144 4.00153 14.5203 4.48289 14.4135C4.55954 14.395 4.63501 14.371 4.70883 14.3415L4.79836 14.3075C4.85805 14.285 4.91815 14.2636 4.97919 14.2476L5.67372 14.0671L7.06347 13.7088C7.29503 13.6489 7.52652 13.5886 7.75795 13.528C7.80019 13.517 8.458 13.2761 9.13998 13.024L9.2253 12.9924C9.9367 12.7292 10.6475 12.4635 10.6894 12.442C10.6793 12.4044 10.6698 12.4346 10.6599 12.3971C9.93311 12.5023 6.52518 13.4928 5.79951 13.6075C5.28562 13.6887 4.77315 13.7821 4.26211 13.8877C3.31716 14.0816 2.37627 14.3001 1.42996 14.4844C0.913713 14.5849 0.484129 14.3737 0.196472 13.8803C-0.0884765 13.3918 -0.0463931 12.886 0.212826 12.3971C0.501056 11.8542 0.965432 11.6356 1.49101 11.4976C2.0584 11.3484 2.88262 11.0564 3.63903 10.8771C6.17701 10.3794 10.4711 9.52722 11.1458 9.3604C11.2467 9.33549 11.3357 9.24907 11.4187 9.16994C10.6782 9.23237 6.27805 10.2099 3.68112 10.7993L3.6808 10.7987C3.4407 10.8579 3.26587 10.8642 3.15632 10.8176C2.16502 10.3963 2.37726 9.12156 2.99528 8.46704C3.44372 7.99224 4.00752 7.82091 4.58101 7.66143L4.68435 7.63253L4.75325 7.6134C4.94857 7.55895 5.14388 7.50253 5.33471 7.43264C6.48268 7.0123 7.67326 6.57969 8.8642 6.34241C10.1657 6.08345 11.419 5.76119 12.732 5.57362C13.4527 5.47101 14.1856 5.42523 14.8896 5.24142C15.9516 4.9646 16.9915 4.58118 18.098 4.58245C18.2092 4.58245 18.3203 4.56829 18.473 4.55777C18.1573 4.33332 17.9123 4.10615 17.6319 3.97089C17.2582 3.79048 16.8734 3.63846 16.488 3.48875L16.2953 3.41401C16.2311 3.38904 16.1668 3.36399 16.1026 3.33886C15.5242 3.11175 15.058 2.68805 14.6164 2.24059C14.361 1.97895 14.2012 1.62227 14.1673 1.23839C14.1509 0.951646 14.2011 0.665024 14.3132 0.406013C14.3756 0.247524 14.4874 0.119304 14.628 0.0448544C14.6323 0.0427157 14.6366 0.0408659 14.6408 0.039074C14.8497 -0.0509843 15.0715 0.0354902 15.2775 0.0899992C15.5307 0.152982 15.7807 0.230955 16.0264 0.323584C16.4458 0.489192 16.8831 0.626419 17.331 0.539366C17.5232 0.501967 17.7237 0.518152 17.9156 0.480117C18.4083 0.382486 18.8928 0.355261 19.3682 0.577979L19.5037 0.641563L19.7745 0.769541C20.1811 0.961507 20.5882 1.15243 21.0016 1.32446L21.0459 1.34284L21.1344 1.37966C21.6806 1.60608 22.2282 1.82065 22.8269 1.85943C23.3113 1.89088 23.7918 2.05174 24.1623 2.43423C24.4936 2.77338 24.8035 3.1374 25.0898 3.52372C25.9983 4.76234 28.0793 6.71807 28.4463 7.05744L28.4676 7.07709C28.4832 7.09154 28.4936 7.1012 28.4988 7.10565C29.0423 7.59236 30.0418 7.54496 30.7249 7.69479C31.2277 7.80496 34.3192 7.64292 39.9996 7.20866L40 18.219Z" fill="white"/>
</svg>
