<svg width="40" height="24" viewBox="0 0 40 24" fill="none" xmlns="http://www.w3.org/2000/svg">
<path fill-rule="evenodd" clip-rule="evenodd" d="M39.9995 15.1468C39.9801 15.8634 39.3037 16.2114 38.6407 16.2225C37.7643 16.2371 36.8876 16.2267 36.0109 16.2269C35.9816 16.2269 35.9393 16.2301 35.8865 16.2356L35.8567 16.2388C35.5642 16.2713 35.0037 16.3596 34.5317 16.3727C32.8861 16.4182 28.7211 16.4011 28.3765 16.5269C28.1344 16.6154 29.8743 16.6938 31.6534 16.7499L31.8588 16.7562C33.4328 16.8044 34.9789 16.8346 35.1521 16.8386C36.0049 16.8575 36.5779 16.7523 37.4306 16.7385C37.818 16.7321 38.2522 16.7927 38.435 17.1865C38.6506 17.6505 38.6317 18.125 38.3584 18.5563C38.159 18.8714 37.6979 19.0166 37.3466 19.0341C36.5546 19.0739 35.9439 19.1524 35.1521 19.1892C35.0789 19.1926 33.4216 19.2523 31.731 19.3138L31.5239 19.3214C29.8331 19.3832 28.1722 19.4449 28.0921 19.4522C28.1067 19.4779 28.123 19.5046 28.1407 19.5325C29.7228 19.5912 30.8079 19.6212 31.3961 19.6224H31.4319C32.7485 19.6224 35.0379 19.3814 35.1495 19.3814C36.0924 19.3814 36.2524 19.8282 36.0102 20.4948C35.8488 20.9393 35.3951 21.2174 34.6492 21.3292C32.4155 21.787 30.7829 22.0739 29.7513 22.19C29.7098 22.2219 29.6626 22.2443 29.6128 22.2559C28.7301 22.4901 26.1593 23.0942 24.7828 23.0942C22.809 23.0942 18.9953 23.5001 16.8997 23.0942C16.1719 22.9533 15.5041 22.6179 14.7347 22.4071C13.8691 22.17 12.9999 21.9148 12.1187 21.7928C11.2295 21.6699 10.1621 21.8402 9.26438 21.8524C8.75094 21.8595 8.2378 21.9022 7.72481 21.9488L7.3697 21.9813C7.17237 21.9993 6.9751 22.0168 6.77782 22.032C6.52677 22.0512 6.11452 22.0714 5.70226 22.0911L5.61393 22.0953C5.23189 22.1135 4.85978 22.1311 4.62669 22.147C3.71875 22.2086 2.17652 22.2998 0 22.4204V11.5686C1.75005 11.7093 2.90151 11.8118 3.45438 11.8759C4.28722 11.9725 5.76586 12.0629 6.60017 12.1437C7.23926 12.2055 7.87946 12.2861 8.51967 12.291C9.8715 12.3014 10.7287 12.3879 12.0786 12.3168C12.5106 12.294 13.3888 12.2847 14.0458 12.1437C14.4316 12.0544 14.8092 11.9285 15.1743 11.7674C16.2961 11.1466 16.8675 10.4012 18.1114 8.81693C19.3663 7.21859 19.9108 7.05424 21.014 6.14137C21.9266 5.38641 22.6572 4.259 23.244 3.82834C23.9139 3.33583 24.506 2.90398 24.7498 2.32632C24.9935 1.74865 25.341 0.840177 25.7747 0.736754C26.2084 0.633331 26.8996 1.23983 26.7341 2.9068C26.5841 4.41749 25.4157 6.14674 24.8238 6.97526C24.2318 7.80379 24.1428 7.7144 24.2318 8.34882C24.2854 8.73301 24.4582 9.08648 24.7222 9.35188V9.33714C25.7088 9.73388 26.4166 9.96254 26.8454 10.0231C28.7533 10.2925 29.7127 10.0231 30.1766 10.0231H32.7811C34.1159 10.0231 36.7664 9.93936 37.3603 10.2925C37.9541 10.6456 38.1774 10.9922 38.1451 11.6353C38.1128 12.2783 37.6003 12.628 36.7277 12.628H36.6383C36.1479 12.6288 34.4402 12.641 33.0172 12.8142C32.5993 12.8651 29.2542 13.159 28.406 13.2255C27.4274 13.3023 27.4369 13.3403 27.6204 13.4161C27.6366 13.4228 27.5928 13.4174 27.5044 13.3998C27.9262 13.5283 29.9186 13.6306 32.8587 13.533C33.3302 13.5174 34.7463 13.4778 35.2838 13.4567C35.5068 13.4479 35.8814 13.4567 36.264 13.4711L36.3523 13.4745C36.8629 13.4948 37.3677 13.5237 37.5258 13.533C37.9216 13.5566 38.2817 13.6067 38.6764 13.6415C39.3474 13.7005 40.0213 14.3422 39.9995 15.1468Z" fill="white"/>
</svg>
