<svg width="178" height="177" viewBox="0 0 178 177" fill="none" xmlns="http://www.w3.org/2000/svg">
<path d="M61.8902 106.417C54.8056 95.649 54.9001 81.5445 62.1737 70.8654M71.0825 115.61C81.8507 122.694 95.9552 122.6 106.634 115.326M115.681 105.988C122.393 95.419 122.301 81.7727 115.403 71.2889M106.211 62.0965C95.727 55.199 82.0807 55.1065 71.512 61.8189" stroke="white" stroke-width="3"/>
<path d="M124.096 44.2112C103.53 27.8385 74.2681 27.7346 53.592 43.8994M133.289 53.4035C149.661 73.9693 149.765 103.232 133.6 123.908M124.488 133.18C103.773 149.972 74.0249 150.077 53.1968 133.495M44.3193 53.0115C27.5278 73.7267 27.4228 103.475 44.0044 124.303" stroke="white" stroke-width="3"/>
<rect x="127.538" y="40.77" width="13" height="37" rx="4.84956" transform="rotate(45 127.538 40.77)" stroke="white" stroke-width="3"/>
<rect x="136.73" y="127.037" width="13" height="37" rx="4.84956" transform="rotate(135 136.73 127.037)" stroke="white" stroke-width="3"/>
<rect x="67.4336" y="100.874" width="13" height="37" rx="4.84956" transform="rotate(45 67.4336 100.874)" stroke="white" stroke-width="3"/>
<rect x="76.6262" y="66.9331" width="13" height="37" rx="4.84956" transform="rotate(135 76.6262 66.9331)" stroke="white" stroke-width="3"/>
</svg>
