<svg width="196" height="50" viewBox="0 0 196 50" fill="none" xmlns="http://www.w3.org/2000/svg">
<rect width="196" height="50" fill="#01753D"/>
<path d="M57 25.4219C57 23.5208 57.5104 22.0339 58.5312 20.9609C59.5521 19.8828 60.8698 19.3438 62.4844 19.3438C63.5417 19.3438 64.4948 19.5964 65.3438 20.1016C66.1927 20.6068 66.8385 21.3125 67.2812 22.2188C67.7292 23.1198 67.9531 24.1432 67.9531 25.2891C67.9531 26.4505 67.7188 27.4896 67.25 28.4062C66.7812 29.3229 66.1172 30.0182 65.2578 30.4922C64.3984 30.9609 63.4714 31.1953 62.4766 31.1953C61.3984 31.1953 60.4349 30.9349 59.5859 30.4141C58.737 29.8932 58.0938 29.1823 57.6562 28.2812C57.2188 27.3802 57 26.4271 57 25.4219ZM58.5625 25.4453C58.5625 26.8255 58.9323 27.9141 59.6719 28.7109C60.4167 29.5026 61.349 29.8984 62.4688 29.8984C63.6094 29.8984 64.5469 29.4974 65.2812 28.6953C66.0208 27.8932 66.3906 26.7552 66.3906 25.2812C66.3906 24.349 66.2318 23.5365 65.9141 22.8438C65.6016 22.1458 65.1406 21.6068 64.5312 21.2266C63.9271 20.8411 63.2474 20.6484 62.4922 20.6484C61.4193 20.6484 60.4948 21.0182 59.7188 21.7578C58.9479 22.4922 58.5625 23.7214 58.5625 25.4453ZM69.7266 22.7031H71.1328V26.2891C71.5807 26.2891 71.8932 26.2031 72.0703 26.0312C72.2526 25.8594 72.5182 25.3594 72.8672 24.5312C73.1432 23.875 73.3672 23.4427 73.5391 23.2344C73.7109 23.026 73.9089 22.8854 74.1328 22.8125C74.3568 22.7396 74.7161 22.7031 75.2109 22.7031H75.4922V23.8672L75.1016 23.8594C74.7318 23.8594 74.4948 23.9141 74.3906 24.0234C74.2812 24.138 74.1146 24.4792 73.8906 25.0469C73.6771 25.5885 73.4818 25.9635 73.3047 26.1719C73.1276 26.3802 72.8542 26.5703 72.4844 26.7422C73.0885 26.9036 73.6823 27.4661 74.2656 28.4297L75.8047 31H74.2578L72.7578 28.4297C72.4505 27.9141 72.1823 27.5755 71.9531 27.4141C71.724 27.2474 71.4505 27.1641 71.1328 27.1641V31H69.7266V22.7031ZM82.5078 29.9766C81.987 30.4193 81.4844 30.7318 81 30.9141C80.5208 31.0964 80.0052 31.1875 79.4531 31.1875C78.5417 31.1875 77.8411 30.9661 77.3516 30.5234C76.862 30.0755 76.6172 29.5052 76.6172 28.8125C76.6172 28.4062 76.7083 28.0365 76.8906 27.7031C77.0781 27.3646 77.3203 27.0938 77.6172 26.8906C77.9193 26.6875 78.2578 26.5339 78.6328 26.4297C78.9089 26.3568 79.3255 26.2865 79.8828 26.2188C81.0182 26.0833 81.8542 25.9219 82.3906 25.7344C82.3958 25.5417 82.3984 25.4193 82.3984 25.3672C82.3984 24.7943 82.2656 24.3906 82 24.1562C81.6406 23.8385 81.1068 23.6797 80.3984 23.6797C79.737 23.6797 79.2474 23.7969 78.9297 24.0312C78.6172 24.2604 78.3854 24.6693 78.2344 25.2578L76.8594 25.0703C76.9844 24.4818 77.1901 24.0078 77.4766 23.6484C77.763 23.2839 78.1771 23.0052 78.7188 22.8125C79.2604 22.6146 79.888 22.5156 80.6016 22.5156C81.3099 22.5156 81.8854 22.599 82.3281 22.7656C82.7708 22.9323 83.0964 23.1432 83.3047 23.3984C83.513 23.6484 83.6589 23.9661 83.7422 24.3516C83.7891 24.5911 83.8125 25.0234 83.8125 25.6484V27.5234C83.8125 28.8307 83.8411 29.6589 83.8984 30.0078C83.9609 30.3516 84.0807 30.6823 84.2578 31H82.7891C82.6432 30.7083 82.5495 30.3672 82.5078 29.9766ZM82.3906 26.8359C81.8802 27.0443 81.1146 27.2214 80.0938 27.3672C79.5156 27.4505 79.1068 27.5443 78.8672 27.6484C78.6276 27.7526 78.4427 27.9062 78.3125 28.1094C78.1823 28.3073 78.1172 28.5286 78.1172 28.7734C78.1172 29.1484 78.2578 29.4609 78.5391 29.7109C78.8255 29.9609 79.2422 30.0859 79.7891 30.0859C80.3307 30.0859 80.8125 29.9688 81.2344 29.7344C81.6562 29.4948 81.9661 29.1693 82.1641 28.7578C82.3151 28.4401 82.3906 27.9714 82.3906 27.3516V26.8359ZM87.6484 27.25V26.1484C88.2422 26.1432 88.6458 26.1198 88.8594 26.0781C89.0781 26.0365 89.2839 25.9115 89.4766 25.7031C89.6693 25.4948 89.7656 25.2344 89.7656 24.9219C89.7656 24.5417 89.638 24.2396 89.3828 24.0156C89.1328 23.7865 88.8073 23.6719 88.4062 23.6719C87.6146 23.6719 87.0599 24.138 86.7422 25.0703L85.4062 24.8516C85.8229 23.2943 86.8281 22.5156 88.4219 22.5156C89.3073 22.5156 90 22.7578 90.5 23.2422C91.0052 23.7266 91.2578 24.3047 91.2578 24.9766C91.2578 25.6536 90.9297 26.1927 90.2734 26.5938C90.6901 26.8177 91.0026 27.1042 91.2109 27.4531C91.4193 27.7969 91.5234 28.2057 91.5234 28.6797C91.5234 29.4245 91.2526 30.0286 90.7109 30.4922C90.1693 30.9557 89.4115 31.1875 88.4375 31.1875C86.5469 31.1875 85.4505 30.3464 85.1484 28.6641L86.4688 28.3828C86.5885 28.9141 86.8307 29.3255 87.1953 29.6172C87.5651 29.9089 87.987 30.0547 88.4609 30.0547C88.9349 30.0547 89.3281 29.9219 89.6406 29.6562C89.9583 29.3854 90.1172 29.0417 90.1172 28.625C90.1172 28.3021 90.0182 28.0208 89.8203 27.7812C89.6224 27.5417 89.4115 27.3932 89.1875 27.3359C88.9635 27.2734 88.5573 27.2422 87.9688 27.2422C87.9219 27.2422 87.8151 27.2448 87.6484 27.25ZM98.5703 29.9766C98.0495 30.4193 97.5469 30.7318 97.0625 30.9141C96.5833 31.0964 96.0677 31.1875 95.5156 31.1875C94.6042 31.1875 93.9036 30.9661 93.4141 30.5234C92.9245 30.0755 92.6797 29.5052 92.6797 28.8125C92.6797 28.4062 92.7708 28.0365 92.9531 27.7031C93.1406 27.3646 93.3828 27.0938 93.6797 26.8906C93.9818 26.6875 94.3203 26.5339 94.6953 26.4297C94.9714 26.3568 95.388 26.2865 95.9453 26.2188C97.0807 26.0833 97.9167 25.9219 98.4531 25.7344C98.4583 25.5417 98.4609 25.4193 98.4609 25.3672C98.4609 24.7943 98.3281 24.3906 98.0625 24.1562C97.7031 23.8385 97.1693 23.6797 96.4609 23.6797C95.7995 23.6797 95.3099 23.7969 94.9922 24.0312C94.6797 24.2604 94.4479 24.6693 94.2969 25.2578L92.9219 25.0703C93.0469 24.4818 93.2526 24.0078 93.5391 23.6484C93.8255 23.2839 94.2396 23.0052 94.7812 22.8125C95.3229 22.6146 95.9505 22.5156 96.6641 22.5156C97.3724 22.5156 97.9479 22.599 98.3906 22.7656C98.8333 22.9323 99.1589 23.1432 99.3672 23.3984C99.5755 23.6484 99.7214 23.9661 99.8047 24.3516C99.8516 24.5911 99.875 25.0234 99.875 25.6484V27.5234C99.875 28.8307 99.9036 29.6589 99.9609 30.0078C100.023 30.3516 100.143 30.6823 100.32 31H98.8516C98.7057 30.7083 98.612 30.3672 98.5703 29.9766ZM98.4531 26.8359C97.9427 27.0443 97.1771 27.2214 96.1562 27.3672C95.5781 27.4505 95.1693 27.5443 94.9297 27.6484C94.6901 27.7526 94.5052 27.9062 94.375 28.1094C94.2448 28.3073 94.1797 28.5286 94.1797 28.7734C94.1797 29.1484 94.3203 29.4609 94.6016 29.7109C94.888 29.9609 95.3047 30.0859 95.8516 30.0859C96.3932 30.0859 96.875 29.9688 97.2969 29.7344C97.7188 29.4948 98.0286 29.1693 98.2266 28.7578C98.3776 28.4401 98.4531 27.9714 98.4531 27.3516V26.8359ZM100.945 22.7031H107.688V23.8672H105.016V31H103.617V23.8672H100.945V22.7031ZM109.008 22.7031H110.414V25.9453H112.195C113.357 25.9453 114.25 26.1719 114.875 26.625C115.505 27.0729 115.82 27.6927 115.82 28.4844C115.82 29.1771 115.557 29.7708 115.031 30.2656C114.51 30.7552 113.674 31 112.523 31H109.008V22.7031ZM110.414 29.8438H111.891C112.781 29.8438 113.417 29.7344 113.797 29.5156C114.177 29.2969 114.367 28.9557 114.367 28.4922C114.367 28.1328 114.227 27.8125 113.945 27.5312C113.664 27.25 113.042 27.1094 112.078 27.1094H110.414V29.8438ZM121.836 22.7031H128.383V31H126.977V23.8672H123.242V31H121.836V22.7031ZM129.977 26.8516C129.977 25.3151 130.404 24.1771 131.258 23.4375C131.971 22.8229 132.841 22.5156 133.867 22.5156C135.008 22.5156 135.94 22.8906 136.664 23.6406C137.388 24.3854 137.75 25.4167 137.75 26.7344C137.75 27.8021 137.589 28.6432 137.266 29.2578C136.948 29.8672 136.482 30.3411 135.867 30.6797C135.258 31.0182 134.591 31.1875 133.867 31.1875C132.706 31.1875 131.766 30.8151 131.047 30.0703C130.333 29.3255 129.977 28.2526 129.977 26.8516ZM131.422 26.8516C131.422 27.9141 131.654 28.7109 132.117 29.2422C132.581 29.7682 133.164 30.0312 133.867 30.0312C134.565 30.0312 135.146 29.7656 135.609 29.2344C136.073 28.7031 136.305 27.8932 136.305 26.8047C136.305 25.7786 136.07 25.0026 135.602 24.4766C135.138 23.9453 134.56 23.6797 133.867 23.6797C133.164 23.6797 132.581 23.9427 132.117 24.4688C131.654 24.9948 131.422 25.7891 131.422 26.8516ZM139.445 22.7031H141.633L143.812 29.3438L146.234 22.7031H148.258V31H146.852V24.3203L144.398 31H143.141L140.82 24V31H139.445V22.7031ZM149.883 26.8516C149.883 25.3151 150.31 24.1771 151.164 23.4375C151.878 22.8229 152.747 22.5156 153.773 22.5156C154.914 22.5156 155.846 22.8906 156.57 23.6406C157.294 24.3854 157.656 25.4167 157.656 26.7344C157.656 27.8021 157.495 28.6432 157.172 29.2578C156.854 29.8672 156.388 30.3411 155.773 30.6797C155.164 31.0182 154.497 31.1875 153.773 31.1875C152.612 31.1875 151.672 30.8151 150.953 30.0703C150.24 29.3255 149.883 28.2526 149.883 26.8516ZM151.328 26.8516C151.328 27.9141 151.56 28.7109 152.023 29.2422C152.487 29.7682 153.07 30.0312 153.773 30.0312C154.471 30.0312 155.052 29.7656 155.516 29.2344C155.979 28.7031 156.211 27.8932 156.211 26.8047C156.211 25.7786 155.977 25.0026 155.508 24.4766C155.044 23.9453 154.466 23.6797 153.773 23.6797C153.07 23.6797 152.487 23.9427 152.023 24.4688C151.56 24.9948 151.328 25.7891 151.328 26.8516ZM159.359 22.7031H160.766V29.8438H163.969V22.7031H165.375V29.8438H168.586V22.7031H169.984V29.8438H170.914V33.3516H169.75V31H159.359V22.7031ZM172.461 22.7031H173.867V25.9453H175.648C176.81 25.9453 177.703 26.1719 178.328 26.625C178.958 27.0729 179.273 27.6927 179.273 28.4844C179.273 29.1771 179.01 29.7708 178.484 30.2656C177.964 30.7552 177.128 31 175.977 31H172.461V22.7031ZM173.867 29.8438H175.344C176.234 29.8438 176.87 29.7344 177.25 29.5156C177.63 29.2969 177.82 28.9557 177.82 28.4922C177.82 28.1328 177.68 27.8125 177.398 27.5312C177.117 27.25 176.495 27.1094 175.531 27.1094H173.867V29.8438Z" fill="white"/>
<path fill-rule="evenodd" clip-rule="evenodd" d="M39.9995 28.1468C39.9801 28.8634 39.3037 29.2114 38.6407 29.2225C37.7643 29.2371 36.8876 29.2267 36.0109 29.2269C35.9816 29.2269 35.9393 29.2301 35.8865 29.2356L35.8567 29.2388C35.5642 29.2713 35.0037 29.3596 34.5317 29.3727C32.8861 29.4182 28.7211 29.4011 28.3765 29.5269C28.1344 29.6154 29.8743 29.6938 31.6534 29.7499L31.8588 29.7562C33.4328 29.8044 34.9789 29.8346 35.1521 29.8386C36.0049 29.8575 36.5779 29.7523 37.4306 29.7385C37.818 29.7321 38.2522 29.7927 38.435 30.1865C38.6506 30.6505 38.6317 31.125 38.3584 31.5563C38.159 31.8714 37.6979 32.0166 37.3466 32.0341C36.5546 32.0739 35.9439 32.1524 35.1521 32.1892C35.0789 32.1926 33.4216 32.2523 31.731 32.3138L31.5239 32.3214C29.8331 32.3832 28.1722 32.4449 28.0921 32.4522C28.1067 32.4779 28.123 32.5046 28.1407 32.5325C29.7228 32.5912 30.8079 32.6212 31.3961 32.6224H31.4319C32.7485 32.6224 35.0379 32.3814 35.1495 32.3814C36.0924 32.3814 36.2524 32.8282 36.0102 33.4948C35.8488 33.9393 35.3951 34.2174 34.6492 34.3292C32.4155 34.787 30.7829 35.0739 29.7513 35.19C29.7098 35.2219 29.6626 35.2443 29.6128 35.2559C28.7301 35.4901 26.1593 36.0942 24.7828 36.0942C22.809 36.0942 18.9953 36.5001 16.8997 36.0942C16.1719 35.9533 15.5041 35.6179 14.7347 35.4071C13.8691 35.17 12.9999 34.9148 12.1187 34.7928C11.2295 34.6699 10.1621 34.8402 9.26438 34.8524C8.75094 34.8595 8.2378 34.9022 7.72481 34.9488L7.3697 34.9813C7.17237 34.9993 6.9751 35.0168 6.77782 35.032C6.52677 35.0512 6.11452 35.0714 5.70226 35.0911L5.61393 35.0953C5.23189 35.1135 4.85978 35.1311 4.62669 35.147C3.71875 35.2086 2.17652 35.2998 0 35.4204V24.5686C1.75005 24.7093 2.90151 24.8118 3.45438 24.8759C4.28722 24.9725 5.76586 25.0629 6.60017 25.1437C7.23926 25.2055 7.87946 25.2861 8.51967 25.291C9.8715 25.3014 10.7287 25.3879 12.0786 25.3168C12.5106 25.294 13.3888 25.2847 14.0458 25.1437C14.4316 25.0544 14.8092 24.9285 15.1743 24.7674C16.2961 24.1466 16.8675 23.4012 18.1114 21.8169C19.3663 20.2186 19.9108 20.0542 21.014 19.1414C21.9266 18.3864 22.6572 17.259 23.244 16.8283C23.9139 16.3358 24.506 15.904 24.7498 15.3263C24.9935 14.7487 25.341 13.8402 25.7747 13.7368C26.2084 13.6333 26.8996 14.2398 26.7341 15.9068C26.5841 17.4175 25.4157 19.1467 24.8238 19.9753C24.2318 20.8038 24.1428 20.7144 24.2318 21.3488C24.2854 21.733 24.4582 22.0865 24.7222 22.3519V22.3371C25.7088 22.7339 26.4166 22.9625 26.8454 23.0231C28.7533 23.2925 29.7127 23.0231 30.1766 23.0231H32.7811C34.1159 23.0231 36.7664 22.9394 37.3603 23.2925C37.9541 23.6456 38.1774 23.9922 38.1451 24.6353C38.1128 25.2783 37.6003 25.628 36.7277 25.628H36.6383C36.1479 25.6288 34.4402 25.641 33.0172 25.8142C32.5993 25.8651 29.2542 26.159 28.406 26.2255C27.4274 26.3023 27.4369 26.3403 27.6204 26.4161C27.6366 26.4228 27.5928 26.4174 27.5044 26.3998C27.9262 26.5283 29.9186 26.6306 32.8587 26.533C33.3302 26.5174 34.7463 26.4778 35.2838 26.4567C35.5068 26.4479 35.8814 26.4567 36.264 26.4711L36.3523 26.4745C36.8629 26.4948 37.3677 26.5237 37.5258 26.533C37.9216 26.5566 38.2817 26.6067 38.6764 26.6415C39.3474 26.7005 40.0213 27.3422 39.9995 28.1468Z" fill="white"/>
</svg>
