<svg width="240" height="80" viewBox="0 0 240 80" fill="none" xmlns="http://www.w3.org/2000/svg">
<path fill-rule="evenodd" clip-rule="evenodd" d="M192.728 18.7626C191.707 18.7626 191.212 18.9142 190.985 19.14C190.719 19.3658 190.646 19.8204 190.646 20.5723V29.5832H191.667C193.294 29.5832 194.545 29.3201 195.38 28.6026C196.631 27.5477 197.16 26.1154 197.16 24.1915C197.157 20.1949 194.848 18.7626 192.728 18.7626ZM223.607 23.554C222.509 26.2698 221.445 28.797 220.497 31.5529H226.527L223.607 23.554ZM130.126 23.554C129.025 26.2698 127.964 28.797 127.016 31.5529H133.046L130.126 23.554ZM226.261 16.5356C228.689 23.0994 231.267 29.8176 233.731 36.1184C235.135 39.6261 235.475 39.892 237.939 40.195V41.5901H226.943V40.195C229.331 39.8548 229.331 39.4403 228.799 37.8165C228.42 36.6844 227.814 34.9863 227.246 33.4768H219.854C219.438 34.6461 218.906 36.0812 218.527 37.2504C217.732 39.6261 218.64 39.9291 221.637 40.195V41.5901H212.271V40.195C214.659 39.892 215.267 39.5546 216.555 36.3842L224.441 16.8787L226.261 16.5356ZM160.744 17.1789V18.5682C158.211 18.9056 158.285 19.3944 158.927 20.7095C160.175 23.1509 161.802 26.1555 163.237 28.897C164.372 26.793 166.185 23.188 167.244 20.8982C167.962 19.3973 167.66 18.9084 164.937 18.5711V17.1789H173.749V18.5682C171.33 18.8313 170.458 19.3573 169.097 21.6472C168.922 21.9502 168.746 22.2475 168.577 22.5448L168.356 22.9279C167.28 24.8004 166.222 26.7387 164.711 29.7976C164.408 30.3979 164.295 30.8496 164.295 31.7873V36.4443C164.295 39.7118 164.598 39.8233 167.699 40.2007V41.5901H155.749V40.2007C158.706 39.8291 158.995 39.7147 159.001 36.5443V32.1275C159.001 31.3013 158.848 30.9239 158.585 30.4008C157.487 28.1852 156.089 25.6695 153.819 21.7243C152.421 19.2829 151.853 18.7941 149.66 18.5711V17.1789H160.744ZM132.78 16.5356C135.205 23.0994 137.786 29.8176 140.251 36.1184C141.654 39.6261 141.997 39.892 144.459 40.195V41.5901H133.462V40.195C135.85 39.8548 135.85 39.4403 135.321 37.8165C134.942 36.6844 134.337 34.9863 133.768 33.4768H126.374C125.955 34.6461 125.426 36.0812 125.047 37.2504C124.251 39.6261 125.16 39.9291 128.156 40.195V41.5901H118.79V40.195C121.178 39.892 121.787 39.5546 123.074 36.3842L130.961 16.8787L132.78 16.5356ZM94.5645 17.1789V18.5682C91.7121 18.8313 91.4122 19.0943 91.4122 22.2103V27.582H101.543V22.2103C101.543 19.0943 101.166 18.8684 98.3535 18.5682V17.1789H109.947V18.5682C107.052 18.8656 106.764 19.0885 106.758 22.1131V36.5929C106.758 39.709 107.058 39.9348 109.947 40.1978V41.5872H98.3535V40.1978C101.288 39.8262 101.537 39.7118 101.543 36.6901V29.5346H91.4122V36.5958C91.4122 39.7118 91.7489 39.9005 94.5645 40.2007V41.5901H83.0078V40.2007C85.7555 39.9034 86.1884 39.7176 86.1969 36.6958V22.2132C86.1969 19.0943 85.8602 18.7941 83.0078 18.5682V17.1789H94.5645ZM193.258 17.1789C196.628 17.1789 198.561 17.5562 200.114 18.6111C201.628 19.6289 202.652 21.287 202.652 23.6254C202.652 26.9817 200.417 28.7513 197.918 29.7318C198.487 30.8639 199.964 33.3139 201.099 35.0463C202.426 37.1189 203.258 38.1367 203.977 38.9657C204.848 39.9463 205.264 40.2464 206.362 40.6238L206.096 41.9045H205.994C205.748 41.9045 205.355 41.8988 204.961 41.8674C200.151 41.6415 198.75 40.6238 197.613 39.04C196.099 36.9674 194.998 34.6661 193.713 32.4048C193.144 31.3871 192.615 31.1612 191.404 31.1612L190.646 31.124V36.6329C190.646 39.6861 191.025 39.952 193.866 40.2893V41.6844H182.275V40.2893C185.122 39.992 185.487 39.6918 185.493 36.7301V22.1932C185.493 19.2143 185.114 18.7998 182.275 18.574V17.1789H193.258Z" fill="#AE9B31"/>
<path d="M85.9662 49.9824C85.9019 49.4759 85.8617 49.1543 85.8296 48.873C85.5241 48.7765 85.1864 48.6881 84.8166 48.6881C83.7796 48.6881 83.1606 49.3473 83.1606 50.119C83.1606 51.0275 83.9725 51.4214 84.487 51.7027C85.09 52.0243 85.5321 52.3057 85.5321 52.9006C85.5321 53.4874 85.1784 53.8653 84.5674 53.8653C83.7313 53.8653 83.3696 53.0533 83.249 52.5629L83.0078 52.6192C83.0641 53.0051 83.1686 53.6965 83.2249 53.8653C83.3053 53.9055 83.4258 53.9698 83.6268 54.0341C83.8198 54.0904 84.0851 54.1547 84.4147 54.1547C85.4839 54.1547 86.1994 53.4794 86.1994 52.6353C86.1994 51.7269 85.4437 51.3571 84.8086 51.0275C84.1735 50.7059 83.7876 50.4245 83.7876 49.8377C83.7876 49.4035 84.0609 48.9614 84.68 48.9614C85.3794 48.9614 85.5964 49.5161 85.7331 50.0226L85.9662 49.9824Z" fill="black"/>
<path d="M93.1664 48.6881C91.4701 48.6881 90.4572 50.0306 90.4572 51.4776C90.4572 53.0292 91.6148 54.1547 93.0699 54.1547C94.541 54.1547 95.755 53.0935 95.755 51.3571C95.755 49.7412 94.525 48.6881 93.1664 48.6881ZM92.9895 48.9775C94.0507 48.9775 94.935 49.8779 94.935 51.5741C94.935 53.1176 94.1391 53.8653 93.2387 53.8653C92.1052 53.8653 91.2772 52.7639 91.2772 51.2525C91.2772 49.7412 92.0971 48.9775 92.9895 48.9775Z" fill="black"/>
<path d="M104.804 52.6272C104.402 53.4231 103.968 53.8653 103.148 53.8653C101.926 53.8653 101.042 52.8363 101.042 51.3329C101.042 50.111 101.757 48.9775 103.1 48.9775C103.968 48.9775 104.451 49.3232 104.668 50.1753L104.901 50.111C104.852 49.6849 104.804 49.3553 104.74 48.9051C104.515 48.8649 103.968 48.6881 103.317 48.6881C101.524 48.6881 100.222 49.7975 100.222 51.4937C100.222 52.7719 101.098 54.1547 103.1 54.1547C103.679 54.1547 104.354 53.9939 104.579 53.9457C104.724 53.6723 104.925 53.0774 105.037 52.7076L104.804 52.6272Z" fill="black"/>
<path d="M111.268 54.0341V53.809C110.609 53.7608 110.544 53.7206 110.544 53.0292V49.8135C110.544 49.1302 110.609 49.082 111.268 49.0337V48.8086H109.138V49.0337C109.797 49.082 109.861 49.1302 109.861 49.8135V53.0292C109.861 53.7125 109.797 53.7608 109.138 53.809V54.0341H111.268Z" fill="black"/>
<path d="M120.302 54.0341V53.809C119.779 53.7608 119.667 53.6884 119.417 52.997C118.903 51.5982 118.364 50.0628 117.866 48.6881L117.617 48.7604L115.953 52.9729C115.679 53.6884 115.567 53.7366 115.052 53.809V54.0341H116.805V53.809C116.194 53.7527 116.129 53.6723 116.298 53.1659C116.403 52.8282 116.523 52.4906 116.652 52.1288H118.364C118.541 52.6192 118.702 53.0533 118.806 53.3668C118.911 53.6804 118.839 53.7447 118.332 53.809V54.0341H120.302ZM118.252 51.7831H116.773C117.022 51.1239 117.271 50.4165 117.528 49.7331H117.544L118.252 51.7831Z" fill="black"/>
<path d="M128.047 52.7237C127.926 53.0935 127.781 53.3508 127.637 53.5116C127.452 53.7206 127.178 53.7608 126.736 53.7608C126.399 53.7608 126.125 53.7447 125.965 53.6563C125.82 53.5759 125.78 53.4151 125.78 52.981V49.8055C125.78 49.1141 125.852 49.082 126.487 49.0337V48.8086H124.389V49.0337C125.048 49.082 125.096 49.1222 125.096 49.8055V53.0212C125.096 53.7045 125.032 53.7608 124.357 53.809V54.0341H127.998C128.071 53.7849 128.24 53.0212 128.288 52.7719L128.047 52.7237Z" fill="black"/>
<path d="M140.513 48.6881C138.816 48.6881 137.803 50.0306 137.803 51.4776C137.803 53.0292 138.961 54.1547 140.416 54.1547C141.887 54.1547 143.101 53.0935 143.101 51.3571C143.101 49.7412 141.871 48.6881 140.513 48.6881ZM140.336 48.9775C141.397 48.9775 142.281 49.8779 142.281 51.5741C142.281 53.1176 141.485 53.8653 140.585 53.8653C139.451 53.8653 138.623 52.7639 138.623 51.2525C138.623 49.7412 139.443 48.9775 140.336 48.9775Z" fill="black"/>
<path d="M152.075 53.8894C151.898 53.8412 151.705 53.7527 151.496 53.5116C151.295 53.3025 151.135 53.0935 150.845 52.6755C150.604 52.3137 150.266 51.7751 150.13 51.5178C150.717 51.2525 151.151 50.8265 151.151 50.1351C151.151 49.6528 150.942 49.291 150.612 49.082C150.315 48.881 149.921 48.8086 149.334 48.8086H147.34V49.0337C147.967 49.09 148.031 49.1141 148.031 49.7975V53.0292C148.031 53.7125 147.967 53.7608 147.308 53.809V54.0341H149.414V53.809C148.779 53.7608 148.707 53.7125 148.707 53.0292V51.751H148.964C149.374 51.751 149.511 51.8474 149.647 52.0725C149.888 52.4665 150.178 52.9649 150.459 53.3588C150.821 53.8814 151.151 54.0582 151.762 54.0904C151.85 54.0984 151.947 54.0984 152.043 54.0984L152.075 53.8894ZM148.707 51.4937V49.5081C148.707 49.283 148.731 49.1945 148.795 49.1543C148.859 49.1061 148.996 49.0739 149.229 49.0739C149.832 49.0739 150.403 49.3955 150.403 50.2637C150.403 50.6978 150.274 51.0194 149.961 51.2606C149.76 51.4294 149.495 51.4937 149.093 51.4937H148.707Z" fill="black"/>
<path d="M161.113 51.6063H159.071V51.8314C159.867 51.8876 159.916 51.9439 159.916 52.5227V53.2061C159.916 53.5437 159.819 53.6482 159.658 53.7366C159.481 53.8251 159.232 53.8733 158.959 53.8733C157.407 53.8733 156.724 52.5227 156.724 51.3571C156.724 49.8779 157.624 48.9694 158.854 48.9694C159.626 48.9694 160.229 49.2347 160.422 50.2235L160.647 50.1753C160.591 49.6447 160.551 49.2026 160.527 48.9212C160.261 48.8649 159.65 48.6881 158.975 48.6881C157.399 48.6881 155.904 49.5965 155.904 51.4535C155.904 53.0533 157.086 54.1547 158.854 54.1547C159.498 54.1547 160.157 53.9778 160.655 53.8653C160.607 53.6402 160.599 53.3829 160.599 53.1016V52.4102C160.599 51.9359 160.631 51.8957 161.113 51.8314V51.6063Z" fill="black"/>
<path d="M170.325 54.0341V53.809C169.802 53.7608 169.69 53.6884 169.441 52.997C168.926 51.5982 168.388 50.0628 167.889 48.6881L167.64 48.7604L165.976 52.9729C165.703 53.6884 165.59 53.7366 165.075 53.809V54.0341H166.828V53.809C166.217 53.7527 166.153 53.6723 166.322 53.1659C166.426 52.8282 166.547 52.4906 166.675 52.1288H168.388C168.564 52.6192 168.725 53.0533 168.83 53.3668C168.934 53.6804 168.862 53.7447 168.355 53.809V54.0341H170.325ZM168.275 51.7831H166.796C167.045 51.1239 167.294 50.4165 167.552 49.7331H167.568L168.275 51.7831Z" fill="black"/>
<path d="M179.871 48.8086H177.974V49.0337C178.536 49.0579 178.721 49.1624 178.761 49.5322C178.794 49.7573 178.818 50.119 178.818 50.8667V52.8443H178.794L175.433 48.8086H174.251V49.0337C174.629 49.0659 174.798 49.1302 174.967 49.3312C175.112 49.5161 175.128 49.5563 175.128 50.1431V51.9118C175.128 52.6433 175.104 53.0372 175.079 53.2865C175.039 53.6804 174.83 53.7849 174.372 53.809V54.0341H176.277V53.809C175.731 53.7768 175.546 53.6804 175.506 53.2704C175.481 53.0372 175.457 52.6514 175.457 51.9118V49.8939H175.473L178.898 54.1064H179.147V50.8667C179.147 50.119 179.163 49.7573 179.195 49.5081C179.228 49.1624 179.421 49.0579 179.871 49.0337V48.8086Z" fill="black"/>
<path d="M186.119 54.0341V53.809C185.459 53.7608 185.395 53.7206 185.395 53.0292V49.8135C185.395 49.1302 185.459 49.082 186.119 49.0337V48.8086H183.988V49.0337C184.647 49.082 184.712 49.1302 184.712 49.8135V53.0292C184.712 53.7125 184.647 53.7608 183.988 53.809V54.0341H186.119Z" fill="black"/>
<path d="M194.55 52.6192C194.405 53.0131 194.277 53.2704 194.108 53.4472C193.883 53.6884 193.585 53.7447 192.581 53.7447C192.026 53.7447 191.527 53.7286 191.27 53.6965C192.372 52.0645 193.473 50.5049 194.59 48.9212L194.534 48.8086H191.326C191.085 48.8086 190.997 48.7926 190.9 48.6077H190.707C190.691 48.9694 190.651 49.5724 190.611 50.0788L190.844 50.0869C190.941 49.7331 191.029 49.5322 191.125 49.3875C191.262 49.1704 191.391 49.0981 192.259 49.0981H193.65C192.532 50.73 191.399 52.3218 190.273 53.9135L190.338 54.0341H194.494C194.582 53.7045 194.727 52.9568 194.783 52.6674L194.55 52.6192Z" fill="black"/>
<path d="M204.006 54.0341V53.809C203.484 53.7608 203.371 53.6884 203.122 52.997C202.607 51.5982 202.069 50.0628 201.57 48.6881L201.321 48.7604L199.657 52.9729C199.384 53.6884 199.271 53.7366 198.757 53.809V54.0341H200.509V53.809C199.898 53.7527 199.834 53.6723 200.003 53.1659C200.107 52.8282 200.228 52.4906 200.356 52.1288H202.069C202.246 52.6192 202.406 53.0533 202.511 53.3668C202.615 53.6804 202.543 53.7447 202.037 53.809V54.0341H204.006ZM201.956 51.7831H200.477C200.726 51.1239 200.976 50.4165 201.233 49.7331H201.249L201.956 51.7831Z" fill="black"/>
<path d="M211.997 50.0306C211.949 49.5643 211.917 48.9775 211.909 48.6077H211.74C211.619 48.7604 211.555 48.8086 211.338 48.8086H208.162C207.937 48.8086 207.833 48.7926 207.72 48.6077H207.56C207.543 49.0498 207.503 49.5724 207.463 50.0547H207.696C207.793 49.701 207.857 49.4679 207.953 49.3312C208.058 49.1543 208.219 49.082 208.886 49.082H209.384V53.0453C209.384 53.6804 209.32 53.7608 208.589 53.809V54.0341H210.888V53.809C210.132 53.7608 210.068 53.6804 210.068 53.0453V49.082H210.631C211.242 49.082 211.37 49.1463 211.507 49.3392C211.595 49.4679 211.676 49.6688 211.756 50.0547L211.997 50.0306Z" fill="black"/>
<path d="M218.253 54.0341V53.809C217.594 53.7608 217.53 53.7206 217.53 53.0292V49.8135C217.53 49.1302 217.594 49.082 218.253 49.0337V48.8086H216.123V49.0337C216.782 49.082 216.846 49.1302 216.846 49.8135V53.0292C216.846 53.7125 216.782 53.7608 216.123 53.809V54.0341H218.253Z" fill="black"/>
<path d="M225.144 48.6881C223.447 48.6881 222.434 50.0306 222.434 51.4776C222.434 53.0292 223.592 54.1547 225.047 54.1547C226.518 54.1547 227.732 53.0935 227.732 51.3571C227.732 49.7412 226.502 48.6881 225.144 48.6881ZM224.967 48.9775C226.028 48.9775 226.912 49.8779 226.912 51.5741C226.912 53.1176 226.116 53.8653 225.216 53.8653C224.082 53.8653 223.254 52.7639 223.254 51.2525C223.254 49.7412 224.074 48.9775 224.967 48.9775Z" fill="black"/>
<path d="M237.414 48.8086H235.516V49.0337C236.079 49.0579 236.264 49.1624 236.304 49.5322C236.336 49.7573 236.36 50.119 236.36 50.8667V52.8443H236.336L232.976 48.8086H231.794V49.0337C232.172 49.0659 232.341 49.1302 232.51 49.3312C232.654 49.5161 232.67 49.5563 232.67 50.1431V51.9118C232.67 52.6433 232.646 53.0372 232.622 53.2865C232.582 53.6804 232.373 53.7849 231.915 53.809V54.0341H233.82V53.809C233.273 53.7768 233.088 53.6804 233.048 53.2704C233.024 53.0372 233 52.6514 233 51.9118V49.8939H233.016L236.441 54.1064H236.69V50.8667C236.69 50.119 236.706 49.7573 236.738 49.5081C236.77 49.1624 236.963 49.0579 237.414 49.0337V48.8086Z" fill="black"/>
<path fill-rule="evenodd" clip-rule="evenodd" d="M28.529 0L28.5389 0.0887785C29.0376 4.28504 29.2869 6.78662 29.2869 7.59155C29.2869 9.32174 28.3589 10.8704 28.1234 12.0107C27.971 12.7506 27.7593 13.4805 27.6346 14.2243C27.5851 14.5143 27.5238 14.8043 27.4605 15.0963L27.407 15.3468C27.2764 15.9722 27.1656 16.6016 27.2131 17.2309C27.2784 18.097 27.3615 18.9631 27.4427 19.8292C27.4901 20.348 27.597 20.8629 27.597 21.3818C27.597 22.1354 27.5297 22.8891 27.4822 23.6427C27.4347 24.3963 27.3793 25.15 27.316 25.9036C27.2646 26.5132 27.3833 27.0991 27.5733 27.6713C27.6781 27.9849 27.9295 28.1665 28.2599 28.2237C28.5726 28.2769 28.8358 28.1447 28.9782 27.8942C29.099 27.6811 29.1563 27.4148 29.1801 27.1662C29.2256 26.6908 29.1781 26.2054 29.2573 25.7379C29.3602 25.1243 29.4848 24.5127 29.6115 23.9031L29.7658 23.1712C29.7915 23.0489 29.8173 22.9265 29.843 22.8042C29.8747 22.6543 29.932 22.5122 29.9776 22.3663C30.0013 22.3682 30.0251 22.3702 30.0488 22.3702C30.0567 22.5063 30.0844 22.6444 30.0686 22.7786C30.0468 22.9838 29.9835 23.183 29.9578 23.3882C29.8687 24.0511 29.7876 24.714 29.7045 25.3788L29.564 26.4935C29.5165 26.8644 29.471 27.2353 29.4294 27.6081C29.3186 28.5847 29.2098 29.5632 29.1148 30.5418C29.0693 31.0153 29.4472 31.469 29.9439 31.5676C30.4505 31.6683 30.8878 31.4256 31.0422 30.9363C31.0956 30.7686 31.0976 30.5852 31.1292 30.4116C31.2005 30.013 31.2697 29.6145 31.3489 29.218C31.3766 29.0799 31.4399 28.9477 31.4716 28.8096C31.6517 28.0461 31.8258 27.2826 32.0059 26.5191C32.0237 26.4461 32.7796 24.1734 32.8113 24.1043C32.839 24.1122 32.8172 24.1201 32.8449 24.128C32.8093 24.4062 32.6312 25.1559 32.4432 25.9411L32.3977 26.1305L32.3601 26.2843C32.1681 27.0834 31.9861 27.8508 31.9465 28.1309C31.8871 28.5551 31.8159 28.9773 31.7387 29.3975C31.5943 30.1768 31.432 30.9521 31.2955 31.7314C31.2203 32.1575 31.3766 32.5107 31.7427 32.7474C32.1048 32.9822 32.4808 32.9467 32.8429 32.7336C33.2446 32.4969 33.4069 32.1141 33.5098 31.6801C33.6206 31.2125 33.8383 30.5319 33.9709 29.9065C34.1015 29.1687 34.2637 28.2493 34.426 27.3477L34.4577 27.1682C34.7426 25.5761 35.0177 24.0728 35.0949 23.7256C35.1127 23.6427 35.178 23.5697 35.2354 23.5006C35.2077 23.8676 34.9326 25.3295 34.6239 26.9019L34.5903 27.0774C34.5784 27.1366 34.5665 27.1938 34.5546 27.253L34.5091 27.4799C34.5012 27.5174 34.4933 27.5549 34.4874 27.5923L34.4418 27.8192L34.3963 28.0441C34.2657 28.7011 34.1371 29.3364 34.0263 29.8769C33.9827 30.0742 33.9768 30.2182 34.0124 30.309C34.3251 31.1257 35.271 30.9501 35.7558 30.4412C36.0823 30.0998 36.2149 29.6757 36.3257 29.2397L36.3633 29.0937C36.4128 28.8984 36.4603 28.7031 36.5236 28.5137C36.8362 27.5687 37.1568 26.5862 37.3329 25.6057C37.5249 24.5324 37.7643 23.5006 37.9028 22.4195C37.978 21.8257 38.0137 21.222 38.1502 20.642C38.1819 20.5098 38.2135 20.3796 38.2472 20.2494L38.3461 19.8568C38.5005 19.2472 38.639 18.6356 38.639 17.9984C38.639 17.9076 38.6489 17.8149 38.6568 17.6886C38.823 17.949 38.9912 18.1503 39.0921 18.3811C39.2188 18.675 39.3276 18.9749 39.4345 19.2787L39.5611 19.6417C39.7293 20.1192 40.044 20.5019 40.3764 20.8669C40.5664 21.076 40.8375 21.2102 41.1205 21.2378C41.3223 21.2555 41.5558 21.2042 41.7379 21.1174C41.8526 21.0622 41.9575 20.9754 42.007 20.857L42.0109 20.8472C42.0782 20.6755 42.0129 20.492 41.9733 20.3224C41.9239 20.1152 41.8724 19.9081 41.7992 19.7049C41.6765 19.3596 41.5756 18.9986 41.6389 18.6297C41.6666 18.4718 41.6547 18.3061 41.6824 18.1483C41.7557 17.7419 41.7755 17.3434 41.6092 16.9508C41.4212 16.5029 41.2253 16.059 41.0551 15.6053C40.8731 15.118 40.6891 14.6346 40.6594 14.102C40.6356 13.7035 40.5169 13.3069 40.2339 13.0011C39.9826 12.7308 39.7135 12.4704 39.4266 12.2376C39.106 11.9772 38.7221 11.6004 38.3481 11.2058L38.2452 11.0973L38.1957 11.048L38.1047 10.9513C37.4121 10.2056 36.8066 9.4776 36.765 9.42827C36.4049 8.98044 36.4385 8.15775 36.3277 7.59352C36.3119 7.5146 36.3039 7.35875 36.3039 7.12595V7.04901C36.3059 6.01918 36.4345 3.66951 36.6859 0H65.8956V4.12919L63.1371 4.9933C60.6893 5.76074 59.0172 8.00585 58.9815 10.5567V10.6396V61.9496C58.9815 64.613 60.7665 66.9449 63.335 67.6531L63.4141 67.6748L65.8956 68.3239V72.2065H40.0796C39.9886 70.4526 39.9213 69.2038 39.8738 68.4561C39.8461 68.028 39.8124 67.0494 39.7827 66.6213C39.7333 65.9151 39.6502 65.2068 39.6403 64.5005C39.6304 63.7351 39.4958 62.8236 39.5928 62.066C39.6897 61.3144 39.8916 60.5726 40.0776 59.8347C40.2438 59.1778 40.509 58.6076 40.6198 57.9881C40.9404 56.2007 40.6198 52.9455 40.6198 51.2627C40.6198 50.1322 40.1765 48.0548 39.9787 47.2321C39.9054 46.3739 39.6719 44.9101 39.2781 42.8425C39.1891 42.2073 38.9694 41.8206 38.6192 41.6845C38.0928 41.4773 37.7406 41.6154 37.7406 42.4164C37.7406 42.4775 37.8178 43.2963 37.8751 44.1722L37.8831 44.3064C37.9108 44.7582 37.9305 45.2139 37.9305 45.5808C37.9305 46.0721 37.9068 46.9974 37.8613 48.3567C37.8178 48.3882 37.7782 48.4158 37.7406 48.4395C37.7287 48.2994 37.5387 42.5426 37.5328 42.4164C37.5031 41.7417 37.4418 41.2189 37.4101 40.5441C37.3963 40.2443 37.2815 39.8517 37.0322 39.68C36.6918 39.4472 36.3158 39.4315 35.9497 39.6149C35.639 39.7708 35.5896 40.1417 35.5955 40.4711C35.6074 41.1991 35.6905 41.6884 35.6747 42.4144C35.6727 42.5486 35.6509 43.6593 35.6193 44.8726L35.6153 45.0186C35.6133 45.1152 35.6094 45.2139 35.6074 45.3125L35.6014 45.4881C35.5579 46.9757 35.4966 48.4001 35.4273 48.1968C35.3739 48.037 35.3521 46.9263 35.3402 45.715L35.3383 45.569V45.496L35.3363 45.3303L35.3343 45.1646V45.0817L35.3323 44.918C35.3244 44.1525 35.3185 43.4225 35.3066 42.9431C35.2947 42.4479 35.1918 41.8403 35.1918 41.6805C35.1918 40.9328 35.1997 40.1851 35.1879 39.4374C35.18 38.8712 34.9049 38.2951 34.337 38.2773C33.7018 38.2596 33.1932 38.8337 33.1477 39.4058C33.12 39.7432 33.0804 40.049 33.0626 40.3883C33.0487 40.6329 32.9854 41.8423 33.0012 42.302C33.0171 42.7597 33.0487 43.969 33.0626 44.3715C33.0824 45.0304 33.0923 45.6341 33.0923 46.1727V46.3404C33.0903 47.7747 33.027 48.7098 32.9537 48.9505C32.9201 48.9524 32.8924 48.7788 32.8508 48.1968C32.8469 48.1416 32.841 48.0726 32.835 47.9936L32.8271 47.893C32.7994 47.5438 32.7598 47.0388 32.7183 46.514L32.7044 46.3443C32.7024 46.3207 32.7005 46.299 32.6985 46.2753L32.6866 46.1372C32.6154 45.2691 32.5441 44.4366 32.5243 44.2531C32.3937 43.0872 32.3779 41.6983 32.3779 41.2149V41.1597V41.0788C32.3779 40.333 32.1009 39.8951 31.5923 39.8675C31.0837 39.8398 30.8087 40.0312 30.5297 40.5382C30.3753 40.8203 30.3258 41.645 30.314 42.519L30.312 42.6788L30.31 42.8484C30.31 42.9057 30.31 42.9609 30.31 43.0181V43.1858C30.31 43.6593 30.3159 44.1091 30.3159 44.4563V46.6837C30.3159 47.0802 30.5297 47.9009 30.3159 49.5325C30.2685 49.8994 30.0864 50.5051 29.7737 51.3475L29.7896 51.3041L29.7441 51.3514C29.5442 51.5487 29.3028 51.673 29.0455 51.7243L28.9862 51.7342C28.4835 51.8111 28.5548 51.7342 27.8998 51.2291C27.2448 50.7241 25.8754 49.7278 24.6802 49.5995C23.3603 49.4575 22.8814 50.0474 22.9625 50.4183C23.0437 50.7892 23.764 51.0851 24.2211 51.2923C24.6782 51.4994 25.0205 52.0064 25.4104 52.5766C25.7507 53.0777 26.6432 53.7011 27.2408 54.4784C27.4763 54.7862 27.6485 55.0407 27.8186 55.2853L27.8859 55.382C28.2144 55.8456 28.5607 56.2796 29.3582 56.9563C30.5138 57.9349 31.1055 58.4261 31.5765 59.2468C31.7625 59.6611 31.903 60.105 31.9663 60.4266C32.0771 60.9869 32.085 61.7365 32.1028 62.1055C32.1582 63.2576 32.091 63.9895 32.0831 65.1417C32.0791 65.6882 32.0158 66.2347 31.9663 66.7792C31.903 67.4914 31.8317 68.752 31.7546 69.4642C31.7071 69.914 31.6299 70.8314 31.527 72.2144L0 72.2065V68.3279L2.62197 67.6433C5.23405 66.9607 7.05459 64.609 7.05459 61.9181V10.6061C7.05459 8.02163 5.37257 5.73509 2.89901 4.95976L0 4.05224V0H28.529Z" fill="#01753D"/>
</svg>
