<svg width="220" height="138" viewBox="0 0 220 138" fill="none" xmlns="http://www.w3.org/2000/svg">
<path d="M163.771 22.9031L155.901 25.516C147.157 27.2579 140.728 24.0392 132.291 22.0321C121.615 19.3514 117.469 20.8075 108.681 21.1612C100.168 22.5307 92.9414 22.0321 89.4437 25.516C85.9459 28.9998 82.4482 32.4837 82.4482 32.4837M163.771 22.9031C163.771 22.9031 159.399 15.0644 159.399 14.1935C159.399 13.3225 176.887 2.87096 177.762 2.87096C178.636 2.87096 218.86 66.4512 217.986 68.1931C217.112 69.935 201.372 80.3866 199.623 80.3866C197.874 80.3866 191.753 69.935 191.753 69.935M163.771 22.9031L191.753 69.935M176.013 85.6123C163.897 76.4222 156.755 71.2746 143.659 62.0964C130.41 53.5653 123.253 48.0843 108.681 42.9352C104.914 41.8868 102.81 42.8381 99.0625 45.5481C99.0625 45.5481 85.9459 59.4835 78.9505 60.3544C71.955 61.2254 69.3316 58.6125 71.0805 51.6448C75.0401 43.8786 74.7455 40.391 82.4482 32.4837M176.013 85.6123C180.385 93.451 174.264 105.644 162.022 98.6768M176.013 85.6123C182.56 80.1669 185.985 76.7111 191.753 69.935M162.022 98.6768C167.269 107.386 158.524 115.225 150.654 112.612M162.022 98.6768L131.417 81.2575M150.654 112.612C150.654 120.451 144.533 127.418 134.914 123.935M150.654 112.612L121.798 96.9348M134.914 123.935C134.04 132.644 127.919 134.386 117.426 132.644C106.932 130.902 100.811 128.289 100.811 128.289M134.914 123.935L112.179 112.612M100.811 128.289C104.898 121.958 107.807 116.022 101.686 110.87C96.4392 107.313 93.5464 109.43 86.8204 116.967M100.811 128.289C95.046 136.141 89.3238 137.645 85.0715 134.386C81.6622 131.773 79.8249 126.548 86.8204 116.967M86.8204 116.967C93.9782 104.792 96.4392 102.161 91.1926 96.9348C83.3226 91.7091 80.033 94.1236 71.0805 107.386M86.8204 116.967C79.8532 126.431 74.5783 130.031 69.3316 125.677C64.085 121.322 65.3525 115.043 71.0805 107.386M71.0805 107.386C64.8577 116.784 59.7128 118.709 53.3246 114.354C50.094 112.152 50.094 105.644 56.2151 98.6768M71.0805 107.386C81.3588 94.8957 84.3665 85.7085 78.076 82.1285C71.955 77.8626 67.5828 82.1285 56.2151 98.6768M56.2151 98.6768C48.3452 104.948 46.1198 103.903 41.7738 100.419C37.4278 96.9348 38.6857 91.3393 42.2241 85.6123M56.2151 98.6768C61.4617 89.0962 62.3361 86.9247 56.2151 81.4782C50.094 76.0318 45.7219 81.4782 42.2241 85.6123M42.2241 85.6123C37.047 78.094 33.9687 74.7678 28.2331 69.935M28.2331 69.935L56.2151 22.0321M28.2331 69.935C28.2331 69.935 24.7354 78.6446 21.2376 79.5156C18.6143 80.1688 2.87444 70.806 2 68.1931C2.0002 66.4512 39.6008 2 40.4752 2C41.3497 2 60.5873 12.4515 60.5873 13.3225C60.5873 14.1935 56.2151 22.0321 56.2151 22.0321M56.2151 22.0321L67.5828 29.8708L82.4482 32.4837" stroke="white" stroke-width="3"/>
</svg>
