<svg width="120" height="134" viewBox="0 0 120 134" fill="none" xmlns="http://www.w3.org/2000/svg">
<path d="M118 132H60M2 132H60M60 132V85.6333M60 29.4444V57.6111M39.9849 56.8889L60 76.6778M60 76.6778V57.6111M60 76.6778V85.6333M78.8464 38.9778L60 57.6111M70.0806 75.6667L60 85.6333M41.4458 85.6333C26.8363 86.76 3.75315 82.8889 3.75315 57.6111C3.75315 33.46 23.0378 30.3111 31.5113 30.3111C31.4139 20.8741 36.9753 2 60 2C83.0247 2 88.1965 20.8741 87.9043 30.3111C98.131 30.3111 115.37 36.9267 115.37 57.6111C115.37 76.6778 99.0076 87.8 77.9698 85.6333" stroke="white" stroke-width="3" stroke-linecap="round"/>
</svg>
