<svg width="130" height="130" viewBox="0 0 130 130" fill="none" xmlns="http://www.w3.org/2000/svg">
<path d="M127.477 127.674V103.16H124.602M97.6766 127.674V103.16H100.029M124.602 103.16V97.0968H123.033M124.602 103.16H100.029M100.029 103.16V97.0968H101.336M123.033 97.0968V91.2976C125.033 88.4798 126.693 84.1787 126.955 83.1261C127.216 82.0735 128 65.2032 128 61.7746C128 58.346 126.955 36.7327 126.955 36.7327C126.955 32.7793 119.896 31.7247 119.896 36.7327M123.033 97.0968H101.336M119.896 36.7327C119.896 33.1439 118.851 30.6718 116.237 30.6718C113.361 30.6719 112.577 32.7174 112.577 36.7327M119.896 36.7327V60.1948M112.577 36.7327V33.5696C112.577 28.0358 105.519 27.7722 105.519 33.5696M112.577 36.7327V60.1948M105.519 33.5696C105.519 28.8265 98.4608 27.7722 98.4608 33.5696V52.5505M105.519 33.5696V60.1948M114.407 79.4357C112.745 72.0486 107.872 68.3646 98.4608 67.8374V52.5505M90.8799 77.3269C92.7755 83.8306 95.5594 86.8801 101.336 92.0884V97.0968M98.4608 52.5505L94.2782 51.4961" stroke="white" stroke-width="3" stroke-linecap="round"/>
<path d="M87.5953 127.939V96.5342H83.9098M49.3999 127.939V96.5342H52.4153M83.9098 96.5342V88.7673H81.8995M83.9098 96.5342H52.4153M52.4153 96.5342V88.7673H54.0906M81.8995 88.7673V81.3381C84.4629 77.7283 86.5902 72.2181 86.9252 70.8697C87.2603 69.5212 88.2654 47.909 88.2654 43.5167C88.2654 39.1243 86.9252 11.436 86.9252 11.436C86.9252 6.3713 77.8789 5.02032 77.8789 11.436M81.8995 88.7673H54.0906M77.8789 11.436C77.8789 6.83835 76.5388 3.67148 73.1883 3.67148C69.5028 3.67157 68.4976 6.29201 68.4976 11.436M77.8789 11.436V41.4928M68.4976 11.436V7.38372C68.4976 0.294542 59.4513 -0.0431799 59.4513 7.38372M68.4976 11.436V41.4928M59.4513 7.38372C59.4513 1.30748 50.4051 -0.0431629 50.4051 7.38372V31.6998V34.362M59.4513 7.38372V41.4928M70.8429 66.142C68.7127 56.6785 62.4668 51.959 50.4051 51.2836V34.362M54.0906 88.7673V82.3512C46.6863 75.6789 43.1183 71.7722 40.6887 63.4405C39.9044 60.4583 39.5642 57.3143 39.3816 53.3411C39.0393 45.8917 41.4729 34.362 41.4729 34.362C42.5186 28.2993 49.5766 29.0901 50.4051 34.362" stroke="white" stroke-width="3" stroke-linecap="round"/>
<path d="M39.6431 127.939V103.367H36.7676M9.84223 127.939V103.367H12.1949M36.7676 103.367V97.29H35.1991M36.7676 103.367H12.1949M12.1949 103.367V97.29H13.502M35.1991 97.29V91.4771C37.1992 88.6527 38.8589 84.3414 39.1203 83.2863C39.2326 82.833 39.4414 79.4528 39.6431 75.472M35.1991 97.29H13.502M32.0622 36.7839C32.0622 33.1865 31.0165 30.7087 28.4024 30.7087C25.5269 30.7088 24.7427 32.7591 24.7427 36.7839M32.0622 36.7839V60.3011M32.0622 36.7839C32.0622 33.7915 34.5703 32.9586 36.5962 33.6133M24.7427 36.7839V33.6133C24.7427 28.0665 17.6846 27.8023 17.6846 33.6133M24.7427 36.7839V60.3011M17.6846 33.6133C17.6846 28.859 10.6265 27.8023 10.6265 33.6133V52.6388V54.7218M17.6846 33.6133V60.3011M26.5726 79.5873C24.9105 72.1828 20.0373 68.4901 10.6265 67.9617V54.7218M13.502 97.29V92.2698C7.72503 87.0492 4.94117 83.9925 3.04554 77.4735C2.43361 75.1402 2.16819 72.6803 2.02575 69.5716C1.75868 63.7429 3.65741 54.7218 3.65741 54.7218C4.47325 49.9782 9.98012 50.5969 10.6265 54.7218" stroke="white" stroke-width="3" stroke-linecap="round"/>
<path d="M81.5372 107.379C81.5372 109.765 79.6222 111.678 77.2862 111.678C74.9502 111.678 73.0352 109.765 73.0352 107.379C73.0352 104.993 74.9502 103.08 77.2862 103.08C79.6222 103.08 81.5372 104.993 81.5372 107.379Z" stroke="white" stroke-width="3"/>
</svg>
